<svg width="25" height="89" viewBox="0 0 25 89" fill="none" xmlns="http://www.w3.org/2000/svg">
<path d="M4.07614 0.361537C3.39872 0.837418 6.09824 5.44194 9.87112 12.9574C12.0643 17.3094 13.9472 21.811 15.5056 26.4285C17.3674 31.9809 18.4367 37.7682 18.6818 43.6194C18.8773 49.4177 18.0092 55.2029 16.1205 60.6886C14.5858 65.2805 12.6291 69.7204 10.2755 73.9515C8.57665 76.9848 6.99558 79.4523 5.769 81.3499C5.67665 80.4581 5.57841 79.585 5.46997 78.753C5.18946 76.6002 4.85919 74.6664 4.50049 73.0476C3.78307 69.81 2.95174 67.8323 2.17667 67.882C1.4016 67.9316 0.829541 69.9992 0.531127 73.3019C0.381907 74.9532 0.301087 76.9133 0.297583 79.0844C0.295851 80.1699 0.313437 81.3081 0.35138 82.4869C0.375123 83.076 0.399281 83.675 0.423843 84.2839L0.471763 85.2022C0.486281 85.3936 0.474658 85.406 0.51826 85.8324C0.553349 86.1314 0.624336 86.4251 0.729688 86.7071C0.910835 87.1936 1.20484 87.6301 1.58754 87.9808C1.97023 88.3315 2.4307 88.5863 2.93107 88.7244C3.25153 88.8136 3.58276 88.8581 3.9154 88.8567C4.11246 88.8565 4.3093 88.8433 4.50464 88.8173L4.81006 88.7715C5.18867 88.7105 5.55489 88.6354 5.90783 88.5505C6.57064 88.3867 7.2244 88.1883 7.86641 87.9559C9.07625 87.5171 10.0784 87.0873 11.0885 86.6602C13.0839 85.8046 14.8549 84.9608 16.3151 84.1753C19.2355 82.6044 20.9125 81.2665 20.6539 80.5342C20.3953 79.8018 18.2501 79.8136 14.9907 80.4248C13.3611 80.7304 11.4529 81.1858 9.36275 81.7729C9.14877 81.836 8.92391 81.9021 8.7056 81.9664C10.4915 80.1313 12.1381 78.1658 13.6317 76.086C16.6519 71.8662 19.1269 67.2819 20.998 62.4418C23.4001 56.4033 24.5257 49.9329 24.3038 43.438C24.0471 37.014 22.7236 30.6775 20.3875 24.6879C18.5164 19.8861 16.149 15.2929 13.3239 10.9828C8.50546 3.70195 4.66157 -0.0604452 4.07614 0.361537Z" fill="#468E0D"/>
</svg>
